<svg width="100" height="100" viewBox="0 0 100 100" fill="none" xmlns="http://www.w3.org/2000/svg">
<path d="M50.0004 55.5555C44.8152 55.5555 40.7412 59.6295 40.7412 64.8147C40.7412 67.7777 42.2227 70.3704 44.4449 72.2221V79.6295C44.4449 82.5925 47.0376 85.1852 50.0006 85.1852C52.9635 85.1852 55.5562 82.5925 55.5562 79.6295V72.2221C57.7784 70.3704 59.2599 67.7777 59.2599 64.8147C59.2595 59.6295 55.1856 55.5555 50.0004 55.5555ZM51.8521 70.0001V79.6297C51.8521 80.7407 51.1114 81.4815 50.0004 81.4815C48.8894 81.4815 48.1486 80.7407 48.1486 79.6297V70.0001C45.9264 69.2593 44.4449 67.0369 44.4449 64.8149C44.4449 61.8519 47.0376 59.2592 50.0006 59.2592C52.9635 59.2592 55.5562 61.8519 55.5562 64.8149C55.5558 67.4074 54.0743 69.2593 51.8521 70.0001Z" fill="#FDE936"/>
<path d="M77.778 40.7407V27.7777C77.778 12.5926 65.1854 0 50.0003 0C34.815 0 22.2224 12.5926 22.2224 27.7779V40.7409C15.926 40.7409 11.1113 45.5557 11.1113 51.852V88.8889C11.1113 95.1853 15.926 100 22.2224 100H77.778C84.0744 100 88.8891 95.1853 88.8891 88.8889V51.8519C88.8891 45.9259 84.0744 40.7407 77.778 40.7407ZM25.9261 27.7779C25.9261 14.4445 36.6668 3.7039 50.0001 3.7039C63.3335 3.7039 74.0741 14.4445 74.0741 27.7779V40.7409H70.3704V27.7779C70.3704 16.6668 61.1112 7.40741 49.9999 7.40741C38.8886 7.40741 29.6298 16.6666 29.6298 27.7779V40.7409H25.9261V27.7779ZM66.6669 27.7779V40.7409H33.3336V27.7779C33.3336 18.5187 40.741 11.1113 50.0001 11.1113C59.2593 11.1113 66.6669 18.5185 66.6669 27.7779ZM85.1854 88.8889C85.1854 92.9629 81.852 96.2963 77.778 96.2963H22.2224C18.1483 96.2963 14.815 92.9629 14.815 88.8889V51.8519C14.815 47.7777 18.1483 44.4444 22.2224 44.4444H77.778C81.852 44.4444 85.1854 47.7777 85.1854 51.8519V88.8889Z" fill="#FDE936"/>
</svg>
