<svg width="57" height="57" viewBox="0 0 57 57" fill="none" xmlns="http://www.w3.org/2000/svg">
<g clip-path="url(#clip0_23_251)">
<path d="M7.12493 8.90644V1.78126C7.12493 0.796594 7.92152 0 8.90642 0C9.89086 0 10.6874 0.796594 10.6874 1.78126V8.90644C10.6874 9.89088 9.89086 10.6875 8.90642 10.6875C7.92152 10.6876 7.12493 9.89088 7.12493 8.90644ZM37.4065 10.6876C38.3907 10.6876 39.1877 9.89099 39.1877 8.90656V1.78126C39.1877 0.796594 38.3907 0 37.4065 0C36.4218 0 35.6246 0.796594 35.6246 1.78126V8.90644C35.6246 9.89088 36.4218 10.6876 37.4065 10.6876ZM56.9998 42.7496C56.9998 50.62 50.6195 57.0001 42.7498 57.0001C34.8807 57.0001 28.4999 50.62 28.4999 42.7496C28.4999 34.8805 34.8805 28.5 42.7498 28.5C50.6195 28.5 56.9998 34.8804 56.9998 42.7496ZM53.4377 42.7496C53.4377 36.857 48.6436 32.0623 42.7499 32.0623C36.8567 32.0623 32.0626 36.8569 32.0626 42.7496C32.0626 48.6435 36.8567 53.4375 42.7499 53.4375C48.6436 53.4375 53.4377 48.6435 53.4377 42.7496ZM14.2501 21.3751H7.12493V28.5H14.2501V21.3751ZM7.12493 39.1876H14.2501V32.0623H7.12493V39.1876ZM17.8124 28.5H24.9377V21.3751H17.8124V28.5ZM17.8124 39.1876H24.9377V32.0623H17.8124V39.1876ZM3.56264 42.3955V17.8124H42.7499V24.9376H46.3125V11.0426C46.3125 8.8786 44.5866 7.12494 42.4543 7.12494H40.9686V8.90656C40.9686 10.8685 39.3715 12.469 37.4066 12.469C35.4411 12.469 33.8441 10.8685 33.8441 8.90656V7.12494H12.4686V8.90656C12.4686 10.8685 10.8718 12.469 8.90654 12.469C6.94084 12.469 5.3439 10.8685 5.3439 8.90656V7.12494H3.85997C1.72758 7.12494 0 8.8786 0 11.0426V42.3956C0 44.5524 1.72758 46.3129 3.85997 46.3129H24.9377V42.7498H3.85997C3.69856 42.7496 3.56264 42.5829 3.56264 42.3955ZM35.6246 28.5V21.3751H28.5001V28.5H35.6246ZM48.0937 42.7496H42.7498V37.4057C42.7498 36.4217 41.9532 35.6251 40.9685 35.6251C39.9839 35.6251 39.1877 36.4217 39.1877 37.4057V44.5315C39.1877 45.5157 39.9839 46.3128 40.9685 46.3128H48.0937C49.0784 46.3128 49.875 45.5157 49.875 44.5315C49.875 43.5468 49.0784 42.7496 48.0937 42.7496Z" fill="#FDE936"/>
</g>
<defs>
<clipPath id="clip0_23_251">
<rect width="57" height="57" fill="white"/>
</clipPath>
</defs>
</svg>
