<svg width="100" height="100" viewBox="0 0 100 100" fill="none" xmlns="http://www.w3.org/2000/svg">
<path d="M20.1563 47.8125C20.6251 47.8125 21.0938 47.6172 21.4845 47.2656C25.5079 43.2812 30.7813 41.4453 38.0079 41.4453C38.047 41.4453 38.1251 41.4453 38.1642 41.4453C39.5704 41.4453 41.0548 41.5234 42.5392 41.5625C49.1798 41.8359 56.6798 42.1094 62.5001 37.6953L65.0001 40.0781C65.3517 40.4297 65.8204 40.5859 66.2892 40.5859C66.4845 40.5859 66.6407 40.5469 66.836 40.5078C67.461 40.3125 67.9688 39.8047 68.1251 39.1406L70.6642 28.3203C70.8204 27.6562 70.6251 26.9922 70.1173 26.5234C69.6095 26.0547 68.9454 25.8984 68.2813 26.0937L57.6563 29.2969C57.0313 29.4922 56.5235 30 56.3673 30.6641C56.211 31.3281 56.4063 31.9922 56.9142 32.4609L59.6876 35.0781C55.0001 38.2812 48.7501 38.0469 42.6954 37.8125C41.172 37.7344 39.6485 37.6953 38.2032 37.6953C38.1642 37.6953 38.086 37.6953 38.047 37.6953C29.7657 37.6953 23.672 39.8828 18.9063 44.6094C18.1642 45.3516 18.1642 46.5234 18.8673 47.2656C19.1798 47.6172 19.6876 47.8125 20.1563 47.8125ZM66.2501 30.625L65.1954 35.1172L61.836 31.9531L66.2501 30.625Z" fill="#FDE936"/>
<path d="M36.7582 28.2422C36.9925 28.2422 37.1878 28.2031 37.4222 28.125L39.4144 27.3828L40.1566 29.375C40.43 30.1172 41.1722 30.5859 41.9144 30.5859C42.1488 30.5859 42.3441 30.5469 42.5785 30.4688C43.555 30.1172 44.0628 29.0234 43.6722 28.0469L42.93 26.0547L44.9222 25.3125C45.8988 24.9609 46.4066 23.8672 46.016 22.8906C45.6644 21.9141 44.5707 21.4453 43.5941 21.7969L41.6019 22.5391L40.8597 20.5469C40.5082 19.5703 39.4144 19.1016 38.4378 19.4531C37.4613 19.8047 36.9535 20.8984 37.3441 21.875L38.0863 23.8672L36.0941 24.6094C35.1175 24.9609 34.6097 26.0547 35.0003 27.0313C35.2738 27.7734 35.9769 28.2422 36.7582 28.2422Z" fill="#FDE936"/>
<path d="M43.2031 48.0078C40.1953 46.6406 36.6016 47.9687 35.2344 50.9765C34.5703 52.4219 34.5313 54.0625 35.0782 55.5859C35.625 57.1094 36.7578 58.2812 38.2032 58.9453C38.9844 59.2969 39.8438 59.4922 40.7031 59.4922C41.4063 59.4922 42.1485 59.375 42.8125 59.1015C44.336 58.5547 45.5078 57.4219 46.1719 55.9765C46.836 54.5312 46.875 52.8906 46.3281 51.3672C45.7813 49.8828 44.6875 48.6719 43.2031 48.0078ZM42.7735 54.414C42.5391 54.9609 42.0703 55.3906 41.5235 55.5859C40.9766 55.7812 40.3516 55.7812 39.8047 55.5078C39.2578 55.2734 38.8282 54.8047 38.6328 54.2578C38.4375 53.7109 38.4375 53.0859 38.711 52.539C39.1016 51.7187 39.9219 51.2109 40.7813 51.2109C41.0938 51.2109 41.4063 51.289 41.7188 51.4062C42.2657 51.6406 42.6953 52.1094 42.8907 52.6562C43.0469 53.2812 43.0078 53.8672 42.7735 54.414Z" fill="#FDE936"/>
<path d="M67.7733 22.5781C68.1639 23.0469 68.6717 23.2812 69.2577 23.2812C69.6483 23.2812 70.078 23.1641 70.4295 22.8906L80.3124 15.0391C81.1327 14.375 81.2498 13.2031 80.6248 12.3828C79.9998 11.5625 78.7889 11.4453 77.9686 12.0703L69.5311 18.7891L66.7186 15.3125C66.0545 14.4922 64.8827 14.375 64.0623 15.0391C63.242 15.7031 63.1248 16.875 63.7889 17.6953L67.7733 22.5781Z" fill="#FDE936"/>
<path d="M96.0156 4.64844H3.98437C2.92969 4.64844 2.10938 5.50781 2.10938 6.52344C2.10938 7.53906 2.96875 8.39844 3.98437 8.39844H8.47656V65.5078C8.47656 66.5625 9.33594 67.3828 10.3516 67.3828H31.2109L23.2812 92.8906C22.9687 93.8672 23.5156 94.9219 24.5312 95.2344C24.7266 95.3125 24.9219 95.3125 25.0781 95.3125C25.8984 95.3125 26.6406 94.8047 26.875 93.9844L35.1562 67.4219H64.8437L73.125 94.0234C73.3594 94.8437 74.1016 95.3516 74.9219 95.3516C75.1172 95.3516 75.3125 95.3125 75.4687 95.2734C76.4453 94.9609 77.0312 93.9062 76.7187 92.9297L68.7891 67.4219H89.6484C90.7031 67.4219 91.5234 66.5625 91.5234 65.5469V8.4375H96.0156C97.0703 8.4375 97.8906 7.57812 97.8906 6.5625C97.8906 5.54687 97.0312 4.64844 96.0156 4.64844ZM87.7734 63.6328H12.2266V8.4375H87.7734V63.6328Z" fill="#FDE936"/>
</svg>
