<svg width="82" height="88" viewBox="0 0 82 88" fill="none" xmlns="http://www.w3.org/2000/svg">
<g clip-path="url(#clip0_23_292)">
<path fill-rule="evenodd" clip-rule="evenodd" d="M29.2857 39.6C29.2857 40.4081 29.9417 41.0667 30.75 41.0667C31.5583 41.0667 32.2143 40.4081 32.2143 39.6C32.2143 38.7919 31.5583 38.1333 30.75 38.1333C29.9417 38.1333 29.2857 38.7919 29.2857 39.6ZM32.2143 66C32.2143 65.1919 31.5583 64.5333 30.75 64.5333C29.9417 64.5333 29.2857 65.1919 29.2857 66C29.2857 66.8081 29.9417 67.4667 30.75 67.4667C31.5583 67.4667 32.2143 66.8081 32.2143 66ZM20.5 39.6C20.5 38.7919 19.844 38.1333 19.0357 38.1333C18.2274 38.1333 17.5714 38.7919 17.5714 39.6C17.5714 40.4081 18.2274 41.0667 19.0357 41.0667C19.844 41.0667 20.5 40.4081 20.5 39.6ZM20.5 57.2C20.5 56.3919 19.844 55.7333 19.0357 55.7333C18.2274 55.7333 17.5714 56.3919 17.5714 57.2C17.5714 58.0081 18.2274 58.6667 19.0357 58.6667C19.844 58.6667 20.5 58.0081 20.5 57.2ZM29.2857 24.9333C29.2857 25.7415 29.9417 26.4 30.75 26.4C31.5583 26.4 32.2143 25.7415 32.2143 24.9333C32.2143 24.1252 31.5583 23.4667 30.75 23.4667C29.9417 23.4667 29.2857 24.1252 29.2857 24.9333ZM20.5 26.4V35.4699C21.7417 35.9128 22.7169 36.8911 23.1577 38.1333H26.628C27.2342 36.4291 28.8435 35.2 30.75 35.2C33.1719 35.2 35.1429 37.1741 35.1429 39.6C35.1429 41.5096 33.9143 43.1215 32.2143 43.7301V61.8699C33.9143 62.4785 35.1429 64.0904 35.1429 66C35.1429 67.9096 33.9143 69.5215 32.2143 70.1301V74.8C32.2143 75.6096 31.5598 76.2667 30.75 76.2667C29.9403 76.2667 29.2857 75.6096 29.2857 74.8V70.1287C27.7907 69.5963 26.6764 68.2851 26.426 66.6747L20.929 61.1703C20.9246 61.1673 20.9246 61.1615 20.9203 61.1571C20.3477 61.4328 19.7137 61.6 19.0357 61.6C16.6138 61.6 14.6429 59.6259 14.6429 57.2C14.6429 54.7741 16.6138 52.8 19.0357 52.8C21.4576 52.8 23.4286 54.7741 23.4286 57.2C23.4286 57.8776 23.2616 58.5141 22.9864 59.0876C22.9908 59.092 22.9951 59.0935 22.9995 59.0964L27.2562 63.3615C27.7702 62.6809 28.4701 62.1617 29.2857 61.8699V43.7287C28.044 43.2872 27.0688 42.3089 26.628 41.0667H23.1577C22.5515 42.7709 20.9422 44 19.0357 44C16.6138 44 14.6429 42.0259 14.6429 39.6C14.6429 37.6904 15.8714 36.0785 17.5714 35.4699V24.9333C17.5714 24.1237 18.226 23.4667 19.0357 23.4667H26.628C27.0688 22.2244 28.044 21.2461 29.2857 20.8032V16.1333C29.2857 15.3237 29.9403 14.6667 30.75 14.6667C31.5598 14.6667 32.2143 15.3237 32.2143 16.1333V20.8032C33.9143 21.4119 35.1429 23.0237 35.1429 24.9333C35.1429 27.3592 33.1719 29.3333 30.75 29.3333C28.8435 29.3333 27.2342 28.1043 26.628 26.4H20.5ZM78.534 54.626C80.7144 52.7061 82 49.9283 82 46.9333C82 43.7947 80.6075 40.9112 78.2148 38.9752C78.7786 37.7975 79.0714 36.5141 79.0714 35.2C79.0714 32.1728 77.4856 29.3847 74.9831 27.7933C75.7387 26.4748 76.1429 24.9876 76.1429 23.4667C76.1429 19.6827 73.7429 16.3929 70.2696 15.1785C70.2799 15.0069 70.2857 14.8368 70.2857 14.6667C70.2857 9.81347 66.3453 5.86667 61.5 5.86667C60.3183 5.86667 59.1674 6.1072 58.0926 6.57067C56.8333 2.75147 53.2121 0 49.0536 0C42.8919 0 40.1522 5.56747 39.565 8.51253C39.5548 8.56093 39.5679 8.60787 39.565 8.65773C39.5606 8.7076 39.5357 8.74867 39.5357 8.8V77.6453C39.2048 81.8092 35.6744 85.0667 31.4821 85.0667C27.3045 85.0667 23.7844 81.7975 23.4666 77.6219C23.4081 76.8577 22.7286 76.2667 21.9643 76.2667C21.5074 76.2667 21.0769 76.4808 20.7987 76.8445C19.6624 78.342 17.9521 79.2 16.1071 79.2C12.8769 79.2 10.25 76.5688 10.25 73.3333C10.25 72.0016 10.7127 70.7285 11.5913 69.6505C11.9866 69.1651 12.0306 68.4801 11.6982 67.9477C11.3673 67.4153 10.7405 67.1513 10.1226 67.2965C9.63207 67.4109 9.19425 67.4667 8.78571 67.4667C5.5555 67.4667 2.92857 64.8355 2.92857 61.6C2.92857 59.1815 4.46168 56.9815 6.74157 56.1249C7.28482 55.9211 7.65675 55.4165 7.69043 54.8387C7.72411 54.2593 7.41368 53.7137 6.90118 53.4483C4.44996 52.1825 2.92857 49.6848 2.92857 46.9333C2.92857 44.3461 4.25668 41.9995 6.48239 40.656C6.82943 40.4463 7.07396 40.1016 7.15889 39.7041C7.24236 39.3052 7.15743 38.8916 6.92461 38.5587C6.22614 37.5599 5.85714 36.3997 5.85714 35.2C5.85714 32.7639 7.40636 30.5595 9.70968 29.7132C10.1651 29.546 10.5092 29.1632 10.6278 28.6924C10.7449 28.2201 10.6205 27.72 10.2969 27.3577C9.32164 26.268 8.78571 24.8864 8.78571 23.4667C8.78571 20.6243 10.8196 18.2028 13.6193 17.7071C14.0117 17.6367 14.3617 17.4093 14.5828 17.0764C14.8039 16.7435 14.8801 16.3343 14.7951 15.9441C14.6926 15.4865 14.6429 15.0685 14.6429 14.6667C14.6429 11.4312 17.2698 8.8 20.5 8.8C21.7681 8.8 22.9908 9.22387 24.0377 10.0261C24.4638 10.3517 25.0334 10.4192 25.521 10.2021C26.0116 9.9836 26.3425 9.51573 26.3879 8.98187C26.6661 5.59093 29.5478 2.93333 32.9464 2.93333C34.5776 2.93333 35.9263 3.4584 37.0684 4.53787C37.6585 5.09373 38.5854 5.06587 39.1389 4.47627C39.6939 3.88667 39.6675 2.95973 39.0789 2.40387C37.3905 0.808133 35.3274 0 32.9464 0C28.7879 0 25.1667 2.75147 23.9074 6.57067C22.8326 6.1072 21.6817 5.86667 20.5 5.86667C15.6547 5.86667 11.7143 9.81347 11.7143 14.6667C11.7143 14.8368 11.7201 15.0069 11.7304 15.1785C8.25711 16.3929 5.85714 19.6827 5.85714 23.4667C5.85714 24.9876 6.26129 26.4748 7.01686 27.7933C4.51439 29.3847 2.92857 32.1728 2.92857 35.2C2.92857 36.5141 3.22143 37.7975 3.78518 38.9752C1.39254 40.9112 0 43.7947 0 46.9333C0 49.9283 1.28564 52.7061 3.46596 54.626C1.32664 56.2643 0 58.8368 0 61.6C0 66.1364 3.44546 69.8823 7.85296 70.3501C7.50154 71.3005 7.32143 72.3037 7.32143 73.3333C7.32143 78.1865 11.2618 82.1333 16.1071 82.1333C17.9258 82.1333 19.6566 81.5804 21.1091 80.5669C22.6027 84.8995 26.7305 88 31.4821 88C37.2046 88 42.0265 83.5384 42.4599 77.8448C42.4614 77.8257 42.4526 77.8081 42.4526 77.7891C42.454 77.7685 42.4643 77.7539 42.4643 77.7333V8.96133C42.681 8.0608 44.1263 2.93333 49.0536 2.93333C52.4522 2.93333 55.3339 5.59093 55.6121 8.98187C55.6575 9.51573 55.9884 9.9836 56.479 10.2021C56.9666 10.4192 57.5362 10.3517 57.9623 10.0261C59.0093 9.22387 60.2319 8.8 61.5 8.8C64.7302 8.8 67.3571 11.4312 67.3571 14.6667C67.3571 15.0685 67.3074 15.4865 67.2049 15.9441C67.1199 16.3343 67.1961 16.7435 67.4172 17.0764C67.6383 17.4093 67.9883 17.6367 68.3807 17.7071C71.1804 18.2028 73.2143 20.6243 73.2143 23.4667C73.2143 24.8864 72.6784 26.268 71.7031 27.3577C71.3795 27.72 71.2551 28.2201 71.3722 28.6924C71.4908 29.1632 71.8349 29.546 72.2903 29.7132C74.5936 30.5595 76.1429 32.7639 76.1429 35.2C76.1429 36.3997 75.7739 37.5599 75.0754 38.5587C74.8426 38.8916 74.7576 39.3052 74.8411 39.7041C74.926 40.1016 75.1706 40.4463 75.5176 40.656C77.7433 41.9995 79.0714 44.3461 79.0714 46.9333C79.0714 49.6848 77.55 52.1825 75.0988 53.4483C74.5863 53.7137 74.2759 54.2593 74.3096 54.8387C74.3433 55.4165 74.7152 55.9211 75.2584 56.1249C77.5383 56.9815 79.0714 59.1815 79.0714 61.6C79.0714 64.8355 76.4445 67.4667 73.2143 67.4667C72.8058 67.4667 72.3679 67.4109 71.8774 67.2965C71.2624 67.1513 70.6342 67.4153 70.3018 67.9477C69.9694 68.4801 70.0134 69.1651 70.4087 69.6505C71.2873 70.7285 71.75 72.0016 71.75 73.3333C71.75 76.5688 69.1231 79.2 65.8929 79.2C64.042 79.2 62.3346 78.3317 61.2101 76.8167C60.8323 76.3107 60.1748 76.1039 59.5759 76.3004C59.3592 76.3723 59.1689 76.4911 59.0151 76.6421C58.7428 76.8856 58.5626 77.2317 58.5334 77.6219C58.2156 81.7975 54.6955 85.0667 50.5179 85.0667C48.6773 85.0667 46.9406 84.4609 45.4954 83.3155C44.8584 82.8124 43.9403 82.9209 43.438 83.5545C42.9358 84.1896 43.0441 85.1121 43.6767 85.6152C45.6169 87.1523 48.0476 88 50.5179 88C55.2724 88 59.4031 84.8936 60.8938 80.5567C62.342 81.5775 64.0698 82.1333 65.8929 82.1333C70.7382 82.1333 74.6786 78.1865 74.6786 73.3333C74.6786 72.3037 74.4985 71.3005 74.147 70.3501C78.5545 69.8823 82 66.1364 82 61.6C82 58.8368 80.6734 56.2643 78.534 54.626ZM52.7143 66C52.7143 66.8096 53.3688 67.4667 54.1786 67.4667C56.3135 67.4667 58.5714 69.7283 58.5714 71.8667C58.5714 72.6763 59.226 73.3333 60.0357 73.3333C60.8455 73.3333 61.5 72.6763 61.5 71.8667C61.5 68.0973 57.9418 64.5333 54.1786 64.5333C53.3688 64.5333 52.7143 65.1904 52.7143 66ZM65.8929 26.4C63.7579 26.4 61.5 24.1384 61.5 22C61.5 21.1904 60.8455 20.5333 60.0357 20.5333C59.226 20.5333 58.5714 21.1904 58.5714 22C58.5714 25.7693 62.1296 29.3333 65.8929 29.3333C66.7026 29.3333 67.3571 28.6763 67.3571 27.8667C67.3571 27.0571 66.7026 26.4 65.8929 26.4ZM48.3214 58.6667C49.1312 58.6667 49.7857 58.0096 49.7857 57.2C49.7857 55.0616 52.0436 52.8 54.1786 52.8C54.9883 52.8 55.6429 52.1429 55.6429 51.3333C55.6429 50.5237 54.9883 49.8667 54.1786 49.8667C50.4154 49.8667 46.8571 53.4307 46.8571 57.2C46.8571 58.0096 47.5117 58.6667 48.3214 58.6667ZM54.1786 41.0667C54.9883 41.0667 55.6429 40.4096 55.6429 39.6C55.6429 38.7904 54.9883 38.1333 54.1786 38.1333C52.0436 38.1333 49.7857 35.8717 49.7857 33.7333C49.7857 32.9237 49.1312 32.2667 48.3214 32.2667C47.5117 32.2667 46.8571 32.9237 46.8571 33.7333C46.8571 37.5027 50.4154 41.0667 54.1786 41.0667ZM68.8214 35.2C68.0117 35.2 67.3571 35.8571 67.3571 36.6667C67.3571 38.8051 65.0992 41.0667 62.9643 41.0667C62.1545 41.0667 61.5 41.7237 61.5 42.5333C61.5 43.3429 62.1545 44 62.9643 44C66.7275 44 70.2857 40.436 70.2857 36.6667C70.2857 35.8571 69.6312 35.2 68.8214 35.2ZM62.9643 52.8C62.1545 52.8 61.5 53.4571 61.5 54.2667C61.5 55.0763 62.1545 55.7333 62.9643 55.7333C65.0992 55.7333 67.3571 57.9949 67.3571 60.1333C67.3571 60.9429 68.0117 61.6 68.8214 61.6C69.6312 61.6 70.2857 60.9429 70.2857 60.1333C70.2857 56.364 66.7275 52.8 62.9643 52.8ZM46.8571 20.5333C46.8571 16.764 50.4154 13.2 54.1786 13.2C54.9883 13.2 55.6429 13.8571 55.6429 14.6667C55.6429 15.4763 54.9883 16.1333 54.1786 16.1333C52.0436 16.1333 49.7857 18.3949 49.7857 20.5333C49.7857 21.3429 49.1312 22 48.3214 22C47.5117 22 46.8571 21.3429 46.8571 20.5333Z" fill="#FDE936"/>
</g>
<defs>
<clipPath id="clip0_23_292">
<rect width="82" height="88" fill="white"/>
</clipPath>
</defs>
</svg>
